<svg xmlns="http://www.w3.org/2000/svg" xmlns:xlink="http://www.w3.org/1999/xlink" preserveAspectRatio="xMidYMid meet" version="1.0" viewBox="-3.2 0.0 430.5 500.0" zoomAndPan="magnify" style="fill: rgb(0, 0, 0);" role="img" aria-label="Stylized Female Doctor"><defs><clipPath id="__id875_sbxmwvviwm"><path d="M 19 0 L 427.359375 0 L 427.359375 406 L 19 406 Z M 19 0"></path></clipPath></defs><g><g id="__id876_sbxmwvviwm"><path d="M 231.785156 366.566406 L 245.265625 498.046875 L 199.199219 498.4375 L 199.140625 497.300781 L 162.140625 497.300781 L 162.113281 499.871094 L 10.640625 500 L 30.941406 341.109375 L 28.804688 324.914062 L 6.722656 266.632812 C -3.15625 245.859375 -2.769531 212.847656 12.074219 195.625 C 12.074219 195.625 12.753906 195.257812 13.964844 194.746094 C 23.207031 188.730469 60.484375 164.285156 88.328125 143.574219 L 93.160156 151.65625 L 158.277344 166.773438 L 153.523438 153.722656 L 195.132812 168.390625 L 195.101562 168.167969 C 195.101562 168.167969 223.988281 175.195312 230.605469 199.679688 L 263.222656 296.214844 L 344.425781 268.496094 L 354.183594 346.96875 L 231.785156 366.566406" style="fill: rgb(232, 227, 244);"></path></g><g id="__id877_sbxmwvviwm"><path d="M 335.71875 226.269531 C 335.597656 226.269531 335.472656 226.277344 335.34375 226.296875 C 334.285156 226.425781 333.179688 226.515625 332.046875 226.609375 C 330.886719 226.707031 329.710938 226.804688 328.566406 226.941406 C 323.414062 227.578125 318.605469 229.078125 318.316406 235.695312 L 318.289062 236.269531 L 318.859375 236.199219 C 320.015625 236.058594 321.5625 236.003906 323.203125 235.945312 C 325.175781 235.878906 327.414062 235.800781 329.441406 235.550781 C 331.589844 235.285156 333.1875 234.863281 334.316406 234.261719 C 334.964844 233.9375 335.335938 233.835938 335.535156 233.8125 L 335.65625 233.804688 C 335.722656 233.804688 335.769531 233.8125 335.871094 233.839844 C 335.949219 233.863281 336.046875 233.890625 336.265625 233.890625 C 336.273438 233.890625 336.28125 233.890625 336.285156 233.890625 C 336.683594 233.839844 336.984375 233.527344 337.640625 232.664062 C 338.636719 231.367188 338.84375 229.296875 338.128906 227.847656 C 337.625 226.832031 336.769531 226.269531 335.71875 226.269531 Z M 338.949219 213.503906 C 338.734375 213.503906 338.503906 213.519531 338.257812 213.546875 C 337.398438 213.652344 336.226562 213.691406 334.9375 213.730469 C 333.390625 213.777344 331.632812 213.828125 330.039062 214.027344 C 328.339844 214.234375 327.074219 214.578125 326.167969 215.074219 C 323.132812 216.75 321.207031 219.703125 321.367188 222.425781 C 321.472656 224.152344 322.417969 225.464844 324.035156 226.121094 C 324.335938 226.238281 324.816406 226.296875 325.554688 226.296875 C 326.570312 226.296875 328.054688 226.183594 329.734375 225.976562 C 332.304688 225.65625 335.472656 225.101562 336.359375 224.625 C 338.972656 223.210938 342.191406 217.929688 341.511719 215.242188 C 341.347656 214.59375 340.792969 213.503906 338.949219 213.503906 Z M 341.683594 200.796875 C 341.46875 200.796875 341.238281 200.8125 340.988281 200.84375 C 340.125 200.949219 338.941406 200.984375 337.664062 201.023438 C 336.117188 201.070312 334.367188 201.125 332.773438 201.320312 C 331.070312 201.53125 329.804688 201.875 328.902344 202.371094 C 325.867188 204.039062 323.9375 206.988281 324.097656 209.707031 C 324.199219 211.441406 325.148438 212.757812 326.765625 213.414062 C 327.066406 213.535156 327.550781 213.589844 328.285156 213.589844 C 329.304688 213.589844 330.789062 213.476562 332.472656 213.269531 C 335.039062 212.953125 338.207031 212.394531 339.09375 211.921875 C 341.703125 210.519531 344.925781 205.246094 344.246094 202.542969 C 344.082031 201.890625 343.53125 200.796875 341.683594 200.796875 Z M 306.71875 158.566406 C 307.71875 153.878906 310.152344 151.539062 312.121094 151.292969 C 312.238281 151.28125 312.355469 151.273438 312.472656 151.273438 C 313.179688 151.273438 313.835938 151.554688 314.359375 152.085938 C 315.316406 153.050781 315.828125 154.792969 315.800781 156.988281 C 315.738281 162.621094 312.832031 166.015625 310.128906 166.347656 C 309.984375 166.367188 309.847656 166.375 309.707031 166.375 C 308.789062 166.375 307.996094 165.996094 307.414062 165.273438 C 306.328125 163.925781 306.078125 161.542969 306.71875 158.566406 Z M 324.910156 152.523438 C 323.546875 147.761719 323.511719 144.707031 326.96875 140.722656 C 324.347656 145.859375 325.488281 149.996094 326.683594 154.355469 C 327.160156 156.085938 327.652344 157.875 327.90625 159.761719 L 327.992188 160.445312 C 328.484375 164.222656 328.859375 167.128906 332.089844 168.089844 C 332.046875 168.089844 332.003906 168.089844 331.960938 168.089844 C 331.65625 168.089844 331.347656 168.085938 331.039062 168.074219 C 325.847656 167.898438 325.660156 162.855469 325.484375 157.96875 C 325.410156 155.949219 325.339844 154.039062 324.910156 152.523438 Z M 388.148438 127.253906 C 383.074219 116.195312 371.035156 109.597656 355.9375 109.597656 C 353.660156 109.597656 351.300781 109.746094 348.914062 110.039062 C 346.183594 110.378906 343.367188 110.910156 340.550781 111.625 C 323.660156 115.917969 309.984375 127.152344 303.023438 142.449219 C 301.03125 146.832031 300.554688 150.910156 300.097656 154.863281 C 299.6875 158.402344 299.261719 162.058594 297.734375 165.925781 C 296.257812 169.679688 296.289062 169.941406 296.460938 171.21875 C 296.554688 171.894531 296.691406 172.921875 296.582031 175.214844 C 296.535156 176.0625 296.632812 176.617188 296.710938 177.066406 C 296.828125 177.765625 296.902344 178.1875 296.363281 179.40625 C 296.160156 179.878906 295.898438 180.109375 295.515625 180.15625 C 295.460938 180.164062 295.402344 180.167969 295.347656 180.167969 C 295.011719 180.167969 294.640625 180.0625 294.292969 179.960938 L 294.109375 179.902344 C 293.738281 179.785156 293.390625 179.671875 293.058594 179.671875 L 292.921875 179.679688 C 292.664062 179.710938 292.457031 179.824219 292.296875 180.023438 C 290.609375 182.207031 288.304688 190.75 289.824219 193.847656 C 290.191406 194.59375 290.804688 195.003906 291.542969 195.003906 C 291.632812 195.003906 291.722656 195 291.816406 194.988281 C 292.492188 194.902344 293.296875 194.503906 294.203125 193.792969 C 294.785156 194.59375 295.796875 195.132812 296.746094 195.132812 C 296.847656 195.132812 296.949219 195.128906 297.050781 195.117188 C 297.574219 195.050781 298.484375 194.75 299.039062 193.5 C 299.621094 194.082031 300.523438 194.59375 301.46875 194.59375 C 301.574219 194.59375 301.675781 194.589844 301.777344 194.574219 C 302.246094 194.519531 302.886719 194.296875 303.433594 193.617188 C 303.46875 193.675781 303.507812 193.730469 303.550781 193.78125 C 303.777344 194.0625 304.109375 194.207031 304.511719 194.207031 C 304.582031 194.207031 304.65625 194.203125 304.730469 194.195312 C 305.691406 194.074219 307.042969 193.140625 308.023438 192.179688 C 308.097656 192.417969 308.210938 192.625 308.363281 192.796875 C 308.675781 193.160156 309.132812 193.355469 309.683594 193.355469 C 309.785156 193.355469 309.886719 193.347656 309.992188 193.335938 C 310.753906 193.242188 311.582031 192.804688 312.226562 192.179688 C 312.269531 192.433594 312.351562 192.628906 312.472656 192.78125 C 312.640625 192.980469 312.859375 193.078125 313.226562 193.078125 C 313.230469 193.078125 313.234375 193.078125 313.238281 193.078125 C 313.636719 193.027344 314.859375 192.875 319.539062 185.589844 L 319.773438 185.230469 C 322.289062 181.34375 323.839844 178.949219 328.257812 178.226562 C 327.988281 178.890625 327.703125 179.621094 327.40625 180.394531 C 325.320312 185.8125 322.472656 193.199219 317.121094 195.570312 C 317.046875 194.894531 316.835938 194.375 316.496094 194.03125 C 316.210938 193.742188 315.84375 193.589844 315.429688 193.589844 C 315.359375 193.589844 315.285156 193.59375 315.214844 193.605469 C 314.535156 193.6875 313.789062 194.15625 313.039062 194.964844 C 312.988281 194.691406 312.894531 194.472656 312.75 194.292969 C 312.527344 194.015625 312.203125 193.867188 311.8125 193.867188 C 311.746094 193.867188 311.679688 193.875 311.605469 193.882812 C 310.667969 194 309.449219 194.894531 308.566406 195.800781 C 308.496094 195.46875 308.367188 195.203125 308.179688 194.996094 C 307.925781 194.714844 307.570312 194.5625 307.160156 194.5625 C 307.085938 194.5625 307.007812 194.570312 306.929688 194.578125 C 305.816406 194.714844 304.398438 195.84375 303.539062 196.90625 C 303.09375 196.570312 302.847656 196.304688 302.660156 196.101562 C 302.445312 195.875 302.246094 195.65625 301.8125 195.65625 C 301.8125 195.65625 301.808594 195.65625 301.808594 195.65625 C 301.523438 195.691406 301.289062 195.871094 300.769531 196.265625 C 300.574219 196.414062 300.332031 196.597656 300.027344 196.820312 C 300.003906 196.460938 299.898438 196.171875 299.71875 195.945312 C 299.484375 195.65625 299.140625 195.503906 298.722656 195.503906 C 298.648438 195.503906 298.566406 195.511719 298.484375 195.519531 C 297.4375 195.648438 296.085938 196.601562 295.167969 197.554688 C 295.015625 196.683594 294.65625 195.777344 293.664062 195.777344 C 293.664062 195.777344 293.660156 195.777344 293.660156 195.777344 C 292.550781 195.914062 291.390625 197.667969 290.242188 199.542969 C 290.109375 199.757812 290.011719 199.917969 289.964844 199.980469 C 287.910156 202.496094 285.617188 209.890625 287.066406 212.019531 C 287.886719 213.226562 289.59375 213.835938 292.140625 213.835938 C 292.96875 213.835938 293.898438 213.773438 294.914062 213.648438 C 301.480469 212.835938 312.011719 209.394531 325.367188 203.691406 C 326.480469 203.214844 327.144531 202.621094 327.789062 202.046875 C 328.386719 201.515625 328.949219 201.015625 329.824219 200.722656 C 330.152344 200.621094 330.535156 200.542969 331 200.488281 C 331.472656 200.429688 331.964844 200.398438 332.4375 200.367188 C 332.898438 200.351562 333.359375 200.324219 333.789062 200.269531 C 334.03125 200.238281 334.261719 200.203125 334.464844 200.15625 C 334.648438 200.121094 334.847656 200.089844 335.054688 200.066406 C 335.683594 199.988281 336.398438 199.949219 337.152344 199.910156 L 337.285156 199.90625 C 338.058594 199.859375 338.9375 199.808594 339.800781 199.703125 C 341.871094 199.445312 343.304688 198.925781 344.3125 198.058594 C 347.25 195.570312 348.394531 193.585938 347.808594 191.992188 C 346.929688 189.589844 342.292969 189.085938 338.5625 189.085938 C 337.585938 189.085938 336.535156 189.125 335.589844 189.195312 C 336.179688 188.59375 336.769531 188.007812 337.371094 187.410156 C 340.425781 184.382812 343.3125 181.515625 344.773438 177.515625 C 346.765625 178.507812 347.476562 180.222656 348.164062 181.882812 C 349.058594 184.042969 349.984375 186.273438 353.679688 186.273438 C 354.109375 186.273438 354.582031 186.242188 355.078125 186.183594 C 355.621094 186.113281 356.214844 186.007812 356.84375 185.867188 C 363.355469 184.386719 371.476562 178.160156 376.136719 172.773438 C 389.769531 156.921875 394.148438 140.328125 388.148438 127.253906 Z M 88.183594 200.925781 L 112.21875 199.441406 C 112.886719 199.398438 113.398438 198.824219 113.355469 198.152344 C 113.3125 197.484375 112.730469 196.96875 112.066406 197.015625 L 85.953125 198.628906 C 85.671875 198.542969 85.371094 198.558594 85.101562 198.679688 L 81.574219 198.898438 L 75.867188 157.074219 C 75.777344 156.40625 75.164062 155.9375 74.5 156.035156 C 73.835938 156.125 73.371094 156.734375 73.460938 157.402344 L 79.320312 200.34375 C 79.40625 200.976562 79.972656 201.433594 80.597656 201.394531 L 85.136719 201.113281 L 157.289062 284.519531 C 157.53125 284.796875 157.867188 284.9375 158.210938 284.9375 C 158.492188 284.9375 158.773438 284.839844 159.003906 284.640625 C 159.511719 284.203125 159.566406 283.4375 159.128906 282.929688 Z M 156.011719 157.789062 L 180.511719 177.789062 L 168.117188 191.15625 C 167.664062 191.648438 167.691406 192.414062 168.183594 192.871094 C 168.675781 193.328125 169.441406 193.300781 169.902344 192.808594 L 179.960938 181.957031 C 181.496094 188.03125 193.863281 238.910156 187.589844 278.71875 C 187.484375 279.382812 187.9375 280.003906 188.601562 280.109375 C 188.664062 280.117188 188.730469 280.121094 188.789062 280.121094 C 189.378906 280.121094 189.894531 279.695312 189.988281 279.097656 C 196.71875 236.394531 182.300781 181.289062 182.15625 180.738281 C 182.082031 180.464844 181.921875 180.234375 181.707031 180.074219 L 183.175781 178.492188 C 183.402344 178.246094 183.519531 177.917969 183.496094 177.582031 C 183.472656 177.25 183.3125 176.9375 183.050781 176.726562 L 157.546875 155.90625 C 157.027344 155.480469 156.261719 155.558594 155.835938 156.078125 C 155.410156 156.597656 155.488281 157.363281 156.011719 157.789062 Z M 199.199219 498.4375 L 186.96875 273.726562 C 185.773438 251.769531 181.34375 230.113281 173.820312 209.457031 L 154.507812 156.421875 C 154.265625 156.367188 154.011719 156.3125 153.769531 156.261719 C 152.257812 153.730469 151.449219 151.527344 152.875 151.121094 C 156.515625 150.078125 156.515625 137.066406 156.515625 137.066406 C 132.011719 144.75 106.261719 128.984375 96.855469 122.300781 C 95.117188 121.066406 92.695312 122.0625 92.324219 124.164062 L 90.683594 133.507812 C 90.351562 135.410156 90.964844 137.359375 92.332031 138.730469 L 94.054688 140.449219 L 89.050781 144.78125 L 116.808594 191.222656 L 128.929688 211.5 C 147.667969 248.199219 160.136719 273.800781 164.019531 308.347656 L 163.972656 313.15625 L 182.023438 310.070312 L 186.316406 389.519531 L 163.164062 394.019531 L 162.121094 498.972656 L 236.679688 498.566406 L 236.628906 498.121094 Z M 57.921875 165.265625 C 53.480469 167.898438 49.402344 170.734375 45.6875 173.644531 C 49.632812 170.964844 53.742188 168.152344 57.921875 165.265625 Z M 30.058594 348.015625 L 30.941406 341.109375 L 25.851562 302.546875 Z M 89.570312 32.265625 C 89.570312 32.265625 95.695312 9.722656 114.957031 12.488281 C 114.957031 12.488281 112.667969 42.554688 89.570312 32.265625" style="fill: rgb(0, 188, 212);"></path></g><g id="__id878_sbxmwvviwm"><path d="M 275.527344 288.414062 C 273.84375 289.984375 272.722656 291.214844 272.722656 291.214844 L 263.070312 295.757812 L 251.882812 301.015625 L 262.265625 293.378906 L 267.9375 289.210938 L 287.167969 275.066406 C 288.273438 274.253906 288.378906 272.640625 287.390625 271.691406 C 285.292969 269.679688 282.308594 268.886719 279.496094 269.617188 C 264.933594 273.40625 237.660156 290.574219 237.660156 290.574219 L 229.949219 289.246094 L 227.554688 290.691406 L 224.210938 292.703125 L 211.804688 300.179688 L 188.835938 308.035156 L 182.039062 310.359375 L 184.046875 347.480469 L 190.878906 345.574219 L 223.867188 336.367188 L 227.601562 336.082031 L 230.023438 335.894531 L 251.511719 334.242188 C 253.949219 334.058594 255.660156 332.242188 257.773438 331.019531 C 268.472656 324.832031 272.160156 317.082031 273.332031 313.625 L 255.789062 325.613281 C 255.605469 325.738281 255.394531 325.804688 255.175781 325.804688 C 254.8125 325.804688 254.472656 325.628906 254.269531 325.328125 C 253.929688 324.828125 254.058594 324.148438 254.554688 323.808594 L 272.164062 311.773438 C 272.347656 311.648438 272.558594 311.585938 272.78125 311.585938 C 273.144531 311.585938 273.480469 311.761719 273.683594 312.0625 C 273.714844 312.105469 273.722656 312.160156 273.746094 312.210938 C 273.804688 311.953125 273.828125 311.8125 273.828125 311.8125 L 285.808594 297.480469 L 286.773438 294.695312 C 286.703125 294.816406 286.609375 294.925781 286.492188 295.015625 L 271.285156 306.648438 L 252.148438 318.847656 C 251.972656 318.960938 251.769531 319.019531 251.5625 319.019531 C 251.1875 319.019531 250.84375 318.828125 250.640625 318.511719 C 250.316406 318.003906 250.464844 317.328125 250.972656 317.003906 L 270.03125 304.855469 L 285.164062 293.277344 C 285.359375 293.132812 285.589844 293.054688 285.828125 293.054688 C 286.175781 293.054688 286.492188 293.214844 286.699219 293.484375 C 286.898438 293.746094 286.949219 294.066406 286.886719 294.367188 L 287.773438 291.800781 L 288.941406 287.4375 L 289.058594 286.996094 L 290.023438 283.398438 C 286.890625 278.917969 279.566406 284.652344 275.527344 288.414062 Z M 167.335938 95.277344 C 167.425781 93.738281 166.253906 92.417969 164.714844 92.324219 C 163.179688 92.234375 161.855469 93.40625 161.765625 94.945312 C 161.671875 96.480469 162.84375 97.804688 164.382812 97.894531 C 165.921875 97.988281 167.242188 96.816406 167.335938 95.277344 Z M 156.777344 126.703125 C 156.492188 126.09375 155.773438 125.828125 155.164062 126.109375 C 155.0625 126.15625 144.824219 130.773438 134.6875 124.460938 C 134.117188 124.105469 133.367188 124.28125 133.015625 124.851562 C 132.660156 125.421875 132.835938 126.171875 133.402344 126.523438 C 137.996094 129.382812 142.558594 130.242188 146.386719 130.242188 C 151.921875 130.242188 155.910156 128.441406 156.183594 128.316406 C 156.792969 128.035156 157.058594 127.3125 156.777344 126.703125 Z M 133.027344 96.015625 C 134.566406 96.105469 135.886719 94.933594 135.980469 93.394531 C 136.070312 91.859375 134.898438 90.535156 133.363281 90.445312 C 131.824219 90.351562 130.503906 91.523438 130.410156 93.0625 C 130.316406 94.601562 131.488281 95.921875 133.027344 96.015625 Z M 127.867188 82.867188 C 135.007812 78.375 140.621094 81.992188 140.851562 82.144531 C 141.410156 82.519531 142.164062 82.371094 142.539062 81.816406 C 142.914062 81.261719 142.769531 80.503906 142.214844 80.128906 C 141.925781 79.9375 135.09375 75.449219 126.574219 80.8125 C 126.007812 81.167969 125.835938 81.917969 126.195312 82.484375 C 126.425781 82.851562 126.820312 83.054688 127.222656 83.054688 C 127.445312 83.054688 127.667969 82.992188 127.867188 82.867188 Z M 148.09375 110.804688 C 148.386719 110.964844 150.46875 112.089844 152.539062 112.089844 C 153.164062 112.089844 153.789062 111.988281 154.359375 111.726562 C 155.144531 111.367188 157.234375 110.417969 153.558594 93.121094 C 153.421875 92.46875 152.777344 92.046875 152.117188 92.1875 C 151.464844 92.328125 151.042969 92.972656 151.183594 93.628906 C 152.570312 100.160156 153.675781 107.933594 153.140625 109.59375 C 152.015625 109.898438 150.089844 109.132812 149.273438 108.679688 C 148.691406 108.355469 147.949219 108.566406 147.625 109.152344 C 147.296875 109.738281 147.507812 110.476562 148.09375 110.804688 Z M 175.929688 82.511719 C 178.585938 88.761719 178.984375 90.585938 178.988281 90.609375 C 178.035156 97.921875 176.574219 105.53125 174.585938 112.871094 C 170.359375 128.503906 164.21875 140.648438 155.523438 146.671875 C 150.511719 150.140625 144.660156 151.589844 137.828125 150.484375 C 128.511719 148.980469 120.574219 143.175781 114.078125 134.964844 L 114.128906 134.550781 C 114.210938 133.882812 113.738281 133.277344 113.074219 133.195312 C 112.960938 133.179688 112.855469 133.203125 112.746094 133.21875 C 112.164062 132.425781 111.589844 131.617188 111.03125 130.789062 C 105.058594 121.929688 100.515625 111.007812 97.453125 99.859375 C 96.488281 100.015625 95.5 100.070312 94.492188 100.023438 C 93.777344 99.992188 93.058594 99.925781 92.335938 99.785156 C 84.386719 98.230469 79.199219 90.53125 80.753906 82.578125 C 81.960938 76.390625 86.90625 71.890625 92.785156 70.929688 L 95.84375 93.375 C 99.390625 91.21875 102.863281 83.882812 105.859375 75.398438 C 108.363281 68.296875 110.53125 60.402344 112.121094 54.035156 C 114.96875 56.785156 118.492188 59.121094 122.871094 60.613281 C 143.765625 67.734375 165.496094 59.703125 171.886719 73.46875 C 172.992188 75.851562 173.917969 77.898438 174.707031 79.695312 C 172.296875 78.53125 166.90625 76.863281 160.410156 80.6875 C 159.832031 81.027344 159.640625 81.773438 159.980469 82.351562 C 160.207031 82.734375 160.613281 82.949219 161.027344 82.949219 C 161.238281 82.949219 161.449219 82.894531 161.644531 82.78125 C 168.910156 78.503906 174.417969 82.28125 174.644531 82.441406 C 175.035156 82.722656 175.53125 82.726562 175.929688 82.511719 Z M 410.402344 260.691406 C 412.742188 267.847656 406.367188 271.753906 406.367188 271.753906 C 406.367188 271.753906 406.628906 275.394531 403.242188 277.867188 C 402.542969 278.378906 401.699219 278.46875 400.808594 278.3125 C 394.371094 284.742188 372.535156 286.652344 372.535156 286.652344 L 348.8125 303.773438 L 345.984375 281.035156 L 396 275.800781 C 394.394531 274.546875 393.222656 273.3125 393.222656 273.3125 C 393.222656 273.3125 386.71875 267.195312 380.601562 263.292969 C 376.722656 260.816406 377.765625 257.660156 379.042969 255.683594 C 379.785156 254.535156 381.257812 254.109375 382.484375 254.707031 L 398.09375 262.285156 L 398.117188 262.117188 C 396.535156 260.722656 390.84375 255.796875 385.417969 252.363281 C 381.433594 249.84375 382.121094 246.15625 383.199219 243.742188 C 383.820312 242.347656 385.511719 241.800781 386.839844 242.554688 L 399.882812 249.964844 L 400.183594 247.878906 C 389.972656 244.085938 388.636719 239.226562 388.980469 236.269531 C 389.152344 234.78125 390.574219 233.765625 392.046875 234.050781 L 401.914062 235.96875 L 402.347656 232.996094 L 401.941406 231.542969 C 396.972656 226.746094 397.753906 222.984375 398.753906 221.074219 C 399.183594 220.253906 400.179688 219.910156 401.019531 220.304688 L 403.988281 221.703125 L 408.578125 223.863281 L 411.183594 231.019531 L 409.359375 237.398438 C 415.21875 242.472656 411.441406 252.101562 411.441406 252.101562 C 413.265625 255.613281 410.402344 260.691406 410.402344 260.691406" style="fill: rgb(167, 60, 40);"></path></g><g id="__id879_sbxmwvviwm"><path d="M 111.03125 130.789062 C 109.527344 130.039062 108.085938 129.28125 106.734375 128.527344 C 106.550781 128.210938 106.242188 127.972656 105.855469 127.925781 C 105.800781 127.917969 105.746094 127.9375 105.691406 127.9375 C 103.496094 126.679688 101.527344 125.453125 99.839844 124.34375 C 99.71875 123.859375 99.316406 123.480469 98.792969 123.429688 C 98.699219 123.421875 98.613281 123.445312 98.523438 123.457031 C 97.925781 123.050781 97.363281 122.660156 96.855469 122.300781 C 96.683594 122.179688 96.503906 122.09375 96.320312 122.015625 C 96.15625 114.371094 95.328125 106.386719 94.492188 100.023438 C 95.5 100.070312 96.488281 100.015625 97.453125 99.859375 C 100.515625 111.007812 105.058594 121.929688 111.03125 130.789062" style="fill: rgb(123, 46, 33);"></path></g><g clip-path="url(#__id875_sbxmwvviwm)" id="__id880_sbxmwvviwm"><path d="M 135.113281 77.945312 C 132.164062 77.945312 129.25 78.839844 126.445312 80.605469 C 126.117188 80.8125 125.886719 81.136719 125.800781 81.515625 C 125.714844 81.894531 125.78125 82.285156 125.988281 82.613281 C 126.257812 83.039062 126.71875 83.296875 127.222656 83.296875 C 127.496094 83.296875 127.765625 83.21875 127.996094 83.070312 C 130.324219 81.609375 132.726562 80.867188 135.136719 80.867188 C 138.4375 80.867188 140.628906 82.285156 140.71875 82.34375 C 140.960938 82.507812 141.242188 82.59375 141.53125 82.59375 C 142.019531 82.59375 142.46875 82.355469 142.742188 81.953125 C 142.960938 81.628906 143.035156 81.242188 142.964844 80.859375 C 142.890625 80.476562 142.671875 80.144531 142.347656 79.929688 C 142.230469 79.847656 139.367188 77.945312 135.113281 77.945312 Z M 152.550781 109.417969 C 151.496094 109.417969 150.082031 108.851562 149.394531 108.46875 C 149.179688 108.347656 148.933594 108.285156 148.6875 108.285156 C 148.15625 108.285156 147.667969 108.570312 147.410156 109.035156 C 147.023438 109.734375 147.273438 110.621094 147.972656 111.015625 C 148.367188 111.234375 150.4375 112.332031 152.539062 112.332031 C 153.253906 112.332031 153.902344 112.203125 154.460938 111.949219 C 155.375 111.53125 157.511719 110.558594 153.796875 93.074219 C 153.65625 92.402344 153.058594 91.914062 152.375 91.914062 C 152.273438 91.914062 152.167969 91.929688 152.070312 91.949219 C 151.28125 92.117188 150.777344 92.890625 150.945312 93.679688 C 152.261719 99.882812 153.375 107.515625 152.945312 109.386719 C 152.824219 109.410156 152.691406 109.417969 152.550781 109.417969 Z M 134.816406 124.253906 C 134.585938 124.109375 134.320312 124.035156 134.046875 124.035156 C 133.539062 124.035156 133.078125 124.292969 132.808594 124.722656 C 132.382812 125.40625 132.59375 126.304688 133.277344 126.730469 C 137.277344 129.222656 141.6875 130.484375 146.386719 130.484375 C 152.027344 130.484375 156.117188 128.613281 156.285156 128.535156 C 156.640625 128.371094 156.90625 128.082031 157.042969 127.714844 C 157.175781 127.351562 157.160156 126.953125 156.996094 126.601562 C 156.757812 126.085938 156.238281 125.757812 155.675781 125.757812 C 155.460938 125.757812 155.257812 125.800781 155.0625 125.890625 C 155.023438 125.90625 151.421875 127.539062 146.378906 127.539062 C 142.207031 127.539062 138.316406 126.433594 134.816406 124.253906 Z M 133.199219 96.261719 C 134.796875 96.261719 136.125 95.007812 136.222656 93.410156 C 136.269531 92.601562 136 91.824219 135.464844 91.21875 C 134.925781 90.609375 134.183594 90.25 133.378906 90.203125 L 133.191406 90.195312 C 131.59375 90.195312 130.261719 91.449219 130.167969 93.046875 C 130.066406 94.71875 131.34375 96.15625 133.011719 96.257812 Z M 164.550781 98.144531 C 166.152344 98.144531 167.480469 96.890625 167.578125 95.292969 C 167.675781 93.621094 166.398438 92.183594 164.730469 92.085938 L 164.546875 92.078125 C 162.945312 92.078125 161.617188 93.328125 161.523438 94.929688 C 161.472656 95.738281 161.742188 96.519531 162.28125 97.121094 C 162.816406 97.730469 163.558594 98.089844 164.367188 98.140625 Z M 272.78125 311.585938 C 272.558594 311.585938 272.347656 311.648438 272.164062 311.773438 L 254.554688 323.808594 C 254.058594 324.148438 253.929688 324.828125 254.269531 325.328125 C 254.472656 325.628906 254.8125 325.804688 255.175781 325.804688 C 255.394531 325.804688 255.605469 325.738281 255.789062 325.613281 L 273.398438 313.578125 C 273.894531 313.238281 274.023438 312.558594 273.683594 312.0625 C 273.480469 311.761719 273.144531 311.585938 272.78125 311.585938 Z M 285.828125 293.054688 C 285.589844 293.054688 285.359375 293.132812 285.164062 293.277344 L 270.03125 304.855469 L 250.972656 317.003906 C 250.464844 317.328125 250.316406 318.003906 250.640625 318.511719 C 250.84375 318.828125 251.1875 319.019531 251.5625 319.019531 C 251.769531 319.019531 251.972656 318.960938 252.148438 318.847656 L 271.285156 306.648438 L 286.492188 295.015625 C 286.972656 294.648438 287.0625 293.960938 286.699219 293.484375 C 286.492188 293.214844 286.175781 293.054688 285.828125 293.054688 Z M 312.0625 150.8125 C 309.796875 151.089844 307.265625 153.671875 306.242188 158.464844 C 304.941406 164.519531 307.386719 167.175781 310.1875 166.832031 C 313.019531 166.480469 316.21875 163.066406 316.285156 156.996094 C 316.339844 152.5625 314.332031 150.53125 312.0625 150.8125 Z M 332.179688 282.519531 C 331.511719 282.597656 331.035156 283.203125 331.117188 283.867188 L 338.925781 348.671875 C 338.957031 348.941406 339.089844 349.171875 339.261719 349.355469 C 339.484375 349.589844 339.789062 349.742188 340.128906 349.742188 C 340.179688 349.742188 340.226562 349.738281 340.277344 349.734375 C 340.703125 349.683594 341.03125 349.40625 341.207031 349.046875 C 341.304688 348.84375 341.367188 348.621094 341.335938 348.382812 L 333.527344 283.578125 C 333.449219 282.914062 332.84375 282.433594 332.179688 282.519531 Z M 328.386719 159.695312 C 327.351562 151.972656 322.503906 146.273438 329.894531 137.1875 C 322.90625 143.21875 322.78125 146.851562 324.441406 152.660156 C 325.890625 157.765625 323.117188 168.292969 331.023438 168.5625 C 332.1875 168.601562 333.316406 168.574219 334.464844 168.429688 C 335.480469 168.304688 336.511719 168.089844 337.59375 167.75 C 337.546875 167.757812 337.496094 167.761719 337.453125 167.765625 C 329.226562 168.78125 329.140625 165.410156 328.386719 159.695312 Z M 230.023438 335.894531 L 227.601562 336.082031 L 230.109375 366.738281 C 230.160156 367.375 230.691406 367.855469 231.320312 367.855469 C 231.351562 367.855469 231.386719 367.855469 231.421875 367.851562 C 231.597656 367.835938 231.757812 367.78125 231.902344 367.699219 C 232.308594 367.480469 232.570312 367.03125 232.53125 366.539062 L 232.523438 366.445312 Z M 348.972656 110.523438 C 346.296875 110.851562 343.519531 111.375 340.667969 112.097656 C 323.816406 116.378906 310.238281 127.761719 303.464844 142.648438 C 299.71875 150.886719 301.449219 157.851562 298.183594 166.105469 C 295.890625 171.9375 297.363281 169.039062 297.066406 175.238281 C 296.953125 177.359375 297.765625 177.433594 296.808594 179.597656 C 296.503906 180.304688 296.0625 180.578125 295.574219 180.640625 C 295.113281 180.695312 294.613281 180.5625 294.148438 180.425781 C 293.683594 180.277344 293.273438 180.125 292.980469 180.164062 C 292.859375 180.179688 292.757812 180.226562 292.683594 180.316406 C 290.644531 182.957031 287.921875 194.980469 291.757812 194.503906 C 292.414062 194.425781 293.261719 193.976562 294.339844 193.058594 C 294.714844 193.964844 295.90625 194.769531 296.992188 194.632812 C 297.800781 194.535156 298.550781 193.914062 298.867188 192.441406 C 299.230469 193.265625 300.511719 194.242188 301.71875 194.09375 C 302.558594 193.988281 303.367188 193.339844 303.804688 191.714844 C 303.484375 193.3125 303.933594 193.800781 304.671875 193.710938 C 305.84375 193.566406 307.734375 191.960938 308.445312 190.972656 C 308.234375 192.445312 308.988281 192.96875 309.933594 192.851562 C 311.078125 192.710938 312.503906 191.644531 312.859375 190.195312 C 312.507812 192.007812 312.691406 192.652344 313.179688 192.59375 C 314.636719 192.414062 318.796875 185.839844 319.132812 185.324219 C 321.949219 180.980469 323.542969 178.308594 328.789062 177.660156 C 328.867188 177.652344 328.949219 177.640625 329.027344 177.632812 C 326.769531 182.910156 323.78125 193.730469 316.671875 196.273438 C 316.6875 194.703125 316.117188 193.980469 315.273438 194.085938 C 314.488281 194.183594 313.46875 194.988281 312.460938 196.488281 C 312.824219 194.800781 312.390625 194.273438 311.664062 194.363281 C 310.570312 194.5 308.8125 196.035156 308.125 197.097656 C 308.289062 195.472656 307.757812 194.964844 306.988281 195.0625 C 305.917969 195.191406 304.386719 196.5 303.644531 197.574219 C 302.28125 196.664062 302.191406 196.097656 301.867188 196.140625 C 301.582031 196.175781 301.117188 196.679688 299.449219 197.824219 C 299.765625 196.371094 299.296875 195.910156 298.546875 196.003906 C 297.382812 196.144531 295.535156 197.609375 294.804688 198.78125 C 294.710938 196.820312 294.28125 196.1875 293.722656 196.257812 C 292.496094 196.410156 290.65625 199.894531 290.339844 200.289062 C 288.464844 202.589844 286.144531 209.804688 287.46875 211.746094 C 288.527344 213.304688 291.273438 213.609375 294.855469 213.164062 C 304.449219 211.980469 320.03125 205.441406 325.175781 203.246094 C 327.304688 202.332031 327.761719 200.898438 329.683594 200.257812 C 330.074219 200.136719 330.5 200.058594 330.941406 200.003906 C 331.421875 199.945312 331.925781 199.914062 332.417969 199.882812 C 332.863281 199.863281 333.3125 199.839844 333.730469 199.785156 C 333.957031 199.757812 334.171875 199.726562 334.371094 199.679688 C 334.566406 199.640625 334.773438 199.609375 334.992188 199.582031 C 335.667969 199.5 336.441406 199.460938 337.253906 199.417969 C 338.058594 199.371094 338.90625 199.324219 339.742188 199.21875 C 341.347656 199.023438 342.902344 198.628906 344 197.6875 C 354.339844 188.925781 338.695312 189.265625 334.332031 189.804688 C 338.433594 185.449219 342.746094 182.179688 344.488281 176.855469 C 350.359375 179.222656 347.050781 186.683594 355.019531 185.699219 C 355.539062 185.636719 356.109375 185.535156 356.734375 185.394531 C 363.367188 183.886719 371.355469 177.558594 375.765625 172.457031 C 405.390625 138.011719 386.160156 105.933594 348.972656 110.523438 Z M 341.050781 201.324219 C 339.085938 201.566406 335.707031 201.449219 332.832031 201.804688 C 331.394531 201.980469 330.082031 202.277344 329.136719 202.796875 C 324.199219 205.511719 322.960938 211.351562 326.949219 212.964844 C 327.617188 213.230469 329.960938 213.089844 332.410156 212.785156 C 335.199219 212.441406 338.121094 211.890625 338.859375 211.492188 C 342.199219 209.703125 346.964844 200.59375 341.050781 201.324219 Z M 338.316406 214.03125 C 336.351562 214.273438 332.972656 214.152344 330.097656 214.507812 C 328.660156 214.6875 327.347656 214.980469 326.402344 215.5 C 321.484375 218.214844 320.226562 224.054688 324.214844 225.667969 C 324.882812 225.9375 327.226562 225.792969 329.675781 225.492188 C 332.464844 225.148438 335.386719 224.597656 336.128906 224.199219 C 339.46875 222.390625 344.226562 213.300781 338.316406 214.03125 Z M 335.402344 226.777344 C 333.246094 227.042969 330.878906 227.148438 328.628906 227.425781 C 323.5625 228.050781 319.070312 229.550781 318.800781 235.71875 C 321.375 235.398438 325.707031 235.519531 329.378906 235.066406 C 331.21875 234.839844 332.890625 234.472656 334.097656 233.832031 C 334.757812 233.496094 335.183594 233.367188 335.472656 233.332031 C 335.6875 233.304688 335.828125 233.328125 335.941406 233.355469 C 336.054688 233.382812 336.136719 233.417969 336.226562 233.40625 C 336.414062 233.382812 336.644531 233.175781 337.257812 232.367188 C 338.824219 230.316406 338.085938 226.445312 335.402344 226.777344 Z M 398.753906 221.074219 C 397.753906 222.984375 396.972656 226.746094 401.941406 231.542969 L 402.347656 232.996094 L 401.914062 235.96875 L 392.046875 234.050781 C 390.574219 233.765625 389.152344 234.78125 388.980469 236.269531 C 388.636719 239.226562 389.972656 244.085938 400.183594 247.878906 L 399.882812 249.964844 L 386.839844 242.554688 C 385.511719 241.800781 383.820312 242.347656 383.199219 243.742188 C 382.121094 246.15625 381.433594 249.84375 385.417969 252.363281 C 390.84375 255.796875 396.535156 260.722656 398.117188 262.117188 L 398.09375 262.285156 L 382.484375 254.707031 C 381.257812 254.109375 379.785156 254.535156 379.042969 255.683594 C 377.765625 257.660156 376.722656 260.816406 380.601562 263.292969 C 386.71875 267.195312 393.222656 273.3125 393.222656 273.3125 C 393.222656 273.3125 394.394531 274.546875 396 275.800781 L 345.984375 281.035156 L 290.746094 286.820312 L 289.058594 286.996094 C 289.058594 286.996094 280.800781 287.761719 275.527344 288.414062 L 267.9375 289.210938 L 237.660156 290.574219 L 229.949219 289.246094 L 227.554688 290.691406 L 237.941406 221.386719 L 262.011719 60.8125 L 427.363281 60.8125 L 403.988281 221.703125 L 401.019531 220.304688 C 400.179688 219.910156 399.183594 220.253906 398.753906 221.074219 Z M 62.476562 218.722656 C 62.667969 219.195312 63.125 219.484375 63.605469 219.484375 C 63.648438 219.484375 63.691406 219.460938 63.734375 219.457031 C 63.84375 219.445312 63.953125 219.4375 64.058594 219.394531 C 64.679688 219.144531 64.980469 218.4375 64.730469 217.8125 C 53.425781 189.769531 30.976562 188.304688 23.1875 188.699219 C 21.503906 188.785156 20.492188 188.957031 20.441406 188.964844 C 19.78125 189.089844 19.34375 189.722656 19.464844 190.382812 C 19.507812 190.605469 19.625 190.789062 19.769531 190.949219 C 20.042969 191.257812 20.453125 191.433594 20.882812 191.355469 C 20.996094 191.332031 25.582031 190.550781 31.867188 191.667969 C 41.332031 193.347656 54.660156 199.328125 62.476562 218.722656 Z M 99.839844 124.34375 C 99.71875 123.859375 99.316406 123.480469 98.792969 123.429688 C 98.699219 123.421875 98.613281 123.445312 98.523438 123.457031 C 97.976562 123.53125 97.523438 123.945312 97.464844 124.519531 L 96.011719 139.230469 C 95.996094 139.222656 95.984375 139.214844 95.980469 139.210938 C 95.402344 138.867188 94.65625 139.058594 94.3125 139.632812 C 93.96875 140.207031 94.15625 140.953125 94.734375 141.296875 C 95.808594 141.941406 117.277344 154.59375 138.789062 154.59375 C 143.015625 154.59375 147.246094 154.105469 151.320312 152.9375 C 151.742188 152.816406 152.027344 152.480469 152.136719 152.089844 C 152.164062 152 152.179688 151.910156 152.183594 151.816406 C 152.191406 151.691406 152.191406 151.566406 152.15625 151.4375 C 151.972656 150.792969 151.300781 150.417969 150.652344 150.605469 C 143.242188 152.722656 135.171875 152.433594 127.5625 151.023438 L 127.980469 148.664062 C 128.09375 148.003906 127.65625 147.375 126.992188 147.257812 C 126.332031 147.140625 125.703125 147.582031 125.585938 148.242188 L 125.179688 150.546875 C 123.320312 150.140625 121.496094 149.675781 119.726562 149.171875 L 120.761719 142.792969 C 120.867188 142.128906 120.417969 141.507812 119.753906 141.398438 C 119.09375 141.292969 118.46875 141.742188 118.359375 142.402344 L 117.378906 148.46875 C 115.722656 147.953125 114.121094 147.40625 112.59375 146.847656 L 114.078125 134.964844 L 114.128906 134.550781 C 114.210938 133.882812 113.738281 133.277344 113.074219 133.195312 C 112.960938 133.179688 112.855469 133.203125 112.746094 133.21875 C 112.222656 133.296875 111.785156 133.695312 111.71875 134.246094 L 110.253906 145.960938 C 108.320312 145.203125 106.53125 144.445312 104.914062 143.71875 C 105.039062 143.554688 105.121094 143.359375 105.148438 143.140625 L 106.90625 129.28125 C 106.941406 129.007812 106.863281 128.75 106.734375 128.527344 C 106.550781 128.210938 106.242188 127.972656 105.855469 127.925781 C 105.800781 127.917969 105.746094 127.9375 105.691406 127.9375 C 105.097656 127.941406 104.574219 128.367188 104.496094 128.976562 L 102.753906 142.722656 C 100.953125 141.871094 99.453125 141.105469 98.328125 140.507812 L 99.882812 124.757812 C 99.898438 124.613281 99.875 124.476562 99.839844 124.34375 Z M 186.105469 389.5625 C 185.820312 389.191406 185.332031 389.003906 184.851562 389.121094 C 184.628906 389.175781 178.710938 390.640625 169.707031 392.605469 C 169.875 392.394531 169.972656 392.121094 169.964844 391.824219 L 167.648438 313.90625 C 175.480469 312.894531 180.816406 312.277344 180.992188 312.257812 C 181.65625 312.183594 182.136719 311.578125 182.058594 310.910156 C 182.023438 310.597656 181.863281 310.328125 181.644531 310.136719 C 181.394531 309.921875 181.066406 309.796875 180.714844 309.84375 C 179.925781 309.9375 173.214844 310.710938 163.984375 311.921875 C 145.5 314.34375 116.910156 318.507812 105.503906 322.394531 C 105.316406 322.457031 105.128906 322.523438 104.941406 322.589844 L 79.0625 250.390625 C 78.835938 249.757812 78.144531 249.429688 77.507812 249.65625 C 76.878906 249.882812 76.546875 250.578125 76.777344 251.210938 L 94.5625 300.835938 L 102.003906 321.59375 C 91.734375 319.308594 78.367188 324.132812 77.761719 324.355469 C 77.132812 324.585938 76.808594 325.28125 77.039062 325.910156 C 77.269531 326.542969 77.964844 326.867188 78.597656 326.636719 C 78.738281 326.585938 91.96875 321.804688 101.558594 323.984375 C 86.519531 330.980469 77.535156 346.050781 77.132812 346.742188 C 76.792969 347.320312 76.984375 348.066406 77.566406 348.402344 C 78.144531 348.746094 78.886719 348.550781 79.226562 347.972656 C 79.332031 347.796875 89.730469 330.335938 106.289062 324.691406 C 117.550781 320.855469 146.847656 316.625 165.226562 314.21875 L 167.535156 391.898438 C 167.550781 392.351562 167.8125 392.742188 168.1875 392.9375 C 166.425781 393.320312 164.546875 393.722656 162.589844 394.128906 C 156.640625 395.371094 149.882812 396.710938 142.8125 397.972656 C 117.714844 402.453125 88.6875 405.980469 77.914062 400.910156 C 61.933594 393.394531 36.972656 341.882812 36.71875 341.363281 C 36.429688 340.761719 35.703125 340.507812 35.097656 340.800781 C 35.015625 340.839844 34.953125 340.90625 34.886719 340.960938 C 34.453125 341.304688 34.28125 341.898438 34.53125 342.417969 C 34.757812 342.886719 36.09375 345.644531 38.214844 349.75 C 45.867188 364.558594 63.761719 396.941406 76.882812 403.113281 C 80.964844 405.03125 87.378906 405.8125 95.105469 405.8125 C 97.902344 405.8125 100.871094 405.707031 103.960938 405.519531 C 122.816406 404.378906 146.234375 400.082031 163.140625 396.53125 C 175.46875 393.945312 184.335938 391.753906 185.441406 391.480469 C 186.089844 391.316406 186.488281 390.65625 186.324219 390.007812 C 186.28125 389.839844 186.203125 389.6875 186.105469 389.5625 Z M 114.957031 12.488281 C 95.695312 9.722656 89.570312 32.265625 89.570312 32.265625 C 93.234375 29.265625 97.125 28.4375 100.527344 28.574219 C 100.4375 27.785156 100.40625 27.335938 100.40625 27.335938 C 100.933594 19.71875 106.664062 14.847656 114.957031 12.492188 Z M 177.800781 29.871094 C 200.414062 53.191406 178.988281 90.613281 178.988281 90.613281 L 178.988281 90.609375 C 178.984375 90.585938 178.585938 88.761719 175.929688 82.511719 C 175.53125 82.726562 175.035156 82.722656 174.644531 82.441406 C 174.417969 82.28125 168.910156 78.503906 161.644531 82.78125 C 161.449219 82.894531 161.238281 82.949219 161.027344 82.949219 C 160.613281 82.949219 160.207031 82.734375 159.980469 82.351562 C 159.640625 81.773438 159.832031 81.027344 160.410156 80.6875 C 166.90625 76.863281 172.296875 78.53125 174.707031 79.695312 C 173.917969 77.898438 172.992188 75.851562 171.886719 73.46875 C 165.496094 59.703125 143.765625 67.734375 122.871094 60.613281 C 118.492188 59.121094 114.96875 56.785156 112.121094 54.035156 C 110.53125 60.402344 108.363281 68.296875 105.859375 75.398438 C 102.863281 83.882812 99.390625 91.21875 95.84375 93.375 L 92.785156 70.929688 C 86.90625 71.890625 81.960938 76.390625 80.753906 82.578125 C 79.199219 90.53125 84.386719 98.230469 92.335938 99.785156 C 93.058594 99.925781 93.777344 99.992188 94.492188 100.023438 C 95.328125 106.386719 96.15625 114.371094 96.320312 122.015625 C 94.65625 121.289062 92.65625 122.269531 92.324219 124.164062 L 90.683594 133.507812 C 90.351562 135.410156 90.964844 137.359375 92.332031 138.730469 L 94.054688 140.449219 L 89.050781 144.78125 L 90.960938 147.976562 L 88.328125 143.574219 C 78.800781 150.664062 68.164062 158.1875 57.921875 165.265625 C 54.433594 167.335938 51.171875 169.53125 48.132812 171.789062 C 44.964844 155.632812 42.011719 125.664062 56.476562 102.125 C 74.199219 73.28125 65.839844 48.9375 67.164062 32.742188 C 68.488281 16.546875 80.476562 -0.757812 100.40625 0.0234375 C 112.503906 0.5 116.996094 7.285156 118.636719 11.636719 C 136.613281 8.335938 163.394531 15.019531 177.800781 29.871094 Z M 219.144531 254.289062 C 216.839844 236.613281 216.8125 199.769531 216.8125 199.398438 C 216.8125 198.726562 216.265625 198.183594 215.597656 198.183594 C 214.925781 198.183594 214.382812 198.726562 214.382812 199.398438 C 214.382812 199.746094 214.40625 231.777344 216.28125 250.597656 C 216.421875 252.011719 216.570312 253.355469 216.734375 254.601562 C 219.054688 272.398438 222.570312 289.269531 222.605469 289.4375 C 222.726562 290.011719 223.230469 290.402344 223.792969 290.402344 C 223.796875 290.402344 223.796875 290.402344 223.800781 290.402344 C 223.878906 290.402344 223.960938 290.394531 224.042969 290.378906 C 224.699219 290.238281 225.121094 289.597656 224.984375 288.9375 C 224.949219 288.773438 221.453125 271.992188 219.144531 254.289062 Z M 51.710938 169.535156 C 50.515625 170.355469 49.335938 171.160156 48.164062 171.957031 C 48.164062 171.957031 48.164062 171.957031 48.164062 171.953125 C 49.34375 171.152344 50.507812 170.359375 51.710938 169.535156" style="fill: rgb(21, 37, 61);"></path></g></g></svg>